<svg width="24" height="24" viewBox="0 0 24 24" fill="none" xmlns="http://www.w3.org/2000/svg">
<path d="M11.9946 2C16.044 2 19.381 5.01155 19.6896 8.90657L19.7076 9.19419L19.7128 9.48309L19.7115 14.121L20.901 16.9868C20.9301 17.0565 20.9528 17.1283 20.9691 17.2022L20.9897 17.3131L21 17.4834C20.9986 17.768 20.9034 18.0441 20.7291 18.2688C20.5549 18.4934 20.3115 18.654 20.0368 18.7254L19.8877 18.7602L19.7141 18.7731L15.212 18.7718L15.2056 18.9795C15.1539 19.7977 14.7934 20.5655 14.1974 21.1266C13.6013 21.6877 12.8146 22 11.9971 22C11.1797 22 10.3929 21.6877 9.79693 21.1266C9.20091 20.5655 8.8404 19.7977 8.78873 18.9795L8.7823 18.7718H4.28022C4.16734 18.772 4.05493 18.7572 3.94588 18.728L3.78642 18.6738C3.52684 18.564 3.31037 18.3718 3.17028 18.1267C3.03019 17.8816 2.97423 17.5971 3.011 17.317L3.03801 17.1519L3.0933 16.9868L4.28022 14.1249L4.28151 9.47148L4.28665 9.18129C4.44483 5.16116 7.84485 2 11.9946 2ZM13.9261 18.7718H10.0682L10.0772 18.9537C10.1205 19.4003 10.3172 19.8179 10.6337 20.135C10.9501 20.4522 11.3667 20.6492 11.812 20.6922L11.9971 20.7013C12.4764 20.7013 12.9386 20.5223 13.2935 20.1992C13.6484 19.8762 13.8707 19.4321 13.917 18.9537L13.9261 18.7718ZM11.9946 3.28974C8.62155 3.28974 5.86064 5.77121 5.5906 8.94527L5.57259 9.21869L5.56745 9.48309V14.2526L5.51858 14.5002L4.28022 17.4834L19.6575 17.4859L19.7153 17.4834L18.4757 14.5002L18.4268 14.2526V9.49599L18.4217 9.23288C18.2867 5.91437 15.4627 3.28974 11.9946 3.28974Z" fill="#00A8FF"/>
</svg>
