<svg width="40" height="40" viewBox="0 0 40 40" fill="none" xmlns="http://www.w3.org/2000/svg">
<rect width="40" height="40" rx="10" fill="#EBEBEB"/>
<g clip-path="url(#clip0_2306_1217)">
<path d="M34 27.989C34 29.1002 33.1054 30 32.0005 30H7.9995C6.89464 30 6 29.1002 6 27.989V12.011C6 10.8998 6.89464 10 7.9995 10H31.9982C33.103 10 33.9977 10.8998 33.9977 12.011V27.989H34Z" fill="url(#paint0_linear_2306_1217)"/>
<path d="M34 14.5718H6V18.8241H34V14.5718Z" fill="#00152C"/>
<path d="M9.27026 25.0357C9.27026 25.9387 10.0023 26.6802 10.9054 26.6802C11.8084 26.6802 12.5405 25.9387 12.5405 25.0357C12.5405 24.1326 11.8084 23.3911 10.9054 23.3911C10.0023 23.3911 9.27026 24.1326 9.27026 25.0357Z" fill="#00152C"/>
<path d="M20.9468 25.7402H14.4118C14.1523 25.7402 13.9419 25.9506 13.9419 26.2101C13.9419 26.4696 14.1523 26.68 14.4118 26.68H20.9468C21.2063 26.68 21.4167 26.4696 21.4167 26.2101C21.4167 25.9506 21.2063 25.7402 20.9468 25.7402Z" fill="#00152C"/>
<path d="M23.7498 23.3911H14.4118C14.1523 23.3911 13.9419 23.6015 13.9419 23.861C13.9419 24.1205 14.1523 24.3309 14.4118 24.3309H23.7498C24.0093 24.3309 24.2197 24.1205 24.2197 23.861C24.2197 23.6015 24.0093 23.3911 23.7498 23.3911Z" fill="#00152C"/>
</g>
<defs>
<linearGradient id="paint0_linear_2306_1217" x1="20" y1="10" x2="20" y2="30" gradientUnits="userSpaceOnUse">
<stop stop-color="#FFED98"/>
<stop offset="1" stop-color="#FFDC36"/>
</linearGradient>
<clipPath id="clip0_2306_1217">
<rect width="28" height="20" fill="white" transform="translate(6 10)"/>
</clipPath>
</defs>
</svg>
