<svg width="40" height="40" viewBox="0 0 40 40" fill="none" xmlns="http://www.w3.org/2000/svg">
<rect width="40" height="40" rx="10" fill="#EBEBEB"/>
<g clip-path="url(#clip0_2306_1399)">
<path d="M35 13H5V27.9978H35V13Z" fill="url(#paint0_linear_2306_1399)"/>
<path d="M15.8594 14.5596C13.6521 15.7715 12.1778 17.9434 12.1777 20.4229C12.1777 22.9024 13.6495 25.0752 15.8594 26.2871H9.82227C9.56199 24.8881 8.3236 23.7832 6.75195 23.5537V17.293C8.32356 17.0613 9.56441 15.9585 9.82227 14.5596H15.8594ZM30.0068 14.5596C30.2671 15.9586 31.5064 17.0635 33.0781 17.293V23.5537C31.5064 23.7854 30.2646 24.888 30.0068 26.2871H23.9707C26.1781 25.0752 27.6523 22.9024 27.6523 20.4229C27.6522 17.9434 26.1804 15.7715 23.9707 14.5596H30.0068Z" fill="#AAEEB6"/>
<path d="M9.5048 19.4985C10.3356 19.4985 11.0064 20.1719 11.0064 21.0002C11.0064 21.8284 10.333 22.5018 9.5048 22.5018C8.67658 22.5018 8.00317 21.8284 8.00317 21.0002C8.00317 20.1719 8.67658 19.4985 9.5048 19.4985Z" fill="#039589"/>
<path d="M30.5278 19.4985C31.3585 19.4985 32.0294 20.1719 32.0294 21.0002C32.0294 21.8284 31.356 22.5018 30.5278 22.5018C29.6995 22.5018 29.0261 21.8284 29.0261 21.0002C29.0261 20.1719 29.6995 19.4985 30.5278 19.4985Z" fill="#039589"/>
<path d="M20.1415 26.3671C16.4836 26.3671 13.5093 23.717 13.5093 20.4633C13.5093 17.2097 16.4864 14.5596 20.1415 14.5596C23.7966 14.5596 26.7736 17.2097 26.7736 20.4633C26.7736 23.717 23.7966 26.3671 20.1415 26.3671ZM20.1415 16.3801C17.6136 16.3801 15.5545 18.2106 15.5545 20.4633C15.5545 22.716 17.6108 24.5465 20.1415 24.5465C22.6721 24.5465 24.7285 22.716 24.7285 20.4633C24.7285 18.2106 22.6721 16.3801 20.1415 16.3801Z" fill="#AAEEB6"/>
</g>
<defs>
<linearGradient id="paint0_linear_2306_1399" x1="20" y1="13" x2="20" y2="27.9978" gradientUnits="userSpaceOnUse">
<stop stop-color="#03AA93"/>
<stop offset="1" stop-color="#02787A"/>
</linearGradient>
<clipPath id="clip0_2306_1399">
<rect x="5" y="13" width="30" height="15" rx="2" fill="white"/>
</clipPath>
</defs>
</svg>
