<svg width="40" height="40" viewBox="0 0 40 40" fill="none" xmlns="http://www.w3.org/2000/svg">
<rect width="40" height="40" rx="10" fill="#EBEBEB"/>
<g clip-path="url(#clip0_2306_1397)">
<path d="M29.5084 12.6725C31.2465 13.2124 32.509 14.8229 32.509 16.7316C32.509 19.0797 30.5903 20.9811 28.2256 20.9811C27.4754 20.9811 26.7695 20.7908 26.1557 20.4522C25.9604 19.6195 25.3024 18.9662 24.4674 18.7685C24.1357 18.1628 23.9421 17.4692 23.9421 16.7316C23.9421 14.38 25.8608 12.4785 28.2256 12.4785C28.6735 12.4785 29.1011 12.5481 29.5084 12.6725ZM30.5885 16.7316C30.5885 16.3711 30.2936 16.0783 29.9305 16.0783C29.5674 16.0783 29.2762 16.3711 29.2762 16.7316C29.2762 17.0922 29.5711 17.3813 29.9305 17.3813C30.2899 17.3813 30.5885 17.0885 30.5885 16.7316ZM28.8836 15.037C28.8836 14.6765 28.5887 14.3873 28.2256 14.3873C27.8625 14.3873 27.5713 14.6765 27.5713 15.037C27.5713 15.3975 27.8625 15.6903 28.2256 15.6903C28.5887 15.6903 28.8836 15.3975 28.8836 15.037ZM28.8836 18.4245C28.8836 18.064 28.5887 17.7711 28.2256 17.7711C27.8625 17.7711 27.5713 18.064 27.5713 18.4245C27.5713 18.785 27.8625 19.0742 28.2256 19.0742C28.5887 19.0742 28.8836 18.785 28.8836 18.4245ZM27.1768 16.7316C27.1768 16.3711 26.8856 16.0783 26.5225 16.0783C26.1594 16.0783 25.8682 16.3711 25.8682 16.7316C25.8682 17.0922 26.1594 17.3813 26.5225 17.3813C26.8856 17.3813 27.1768 17.0885 27.1768 16.7316Z" fill="#CFD6E5"/>
<path d="M29.9304 16.0786C30.2935 16.0786 30.5884 16.3714 30.5884 16.732C30.5884 17.0925 30.2935 17.3816 29.9304 17.3816C29.5673 17.3816 29.2761 17.0888 29.2761 16.732C29.2761 16.3751 29.571 16.0786 29.9304 16.0786Z" fill="#3E5167"/>
<path d="M29.5082 12.669V12.6727C29.1009 12.5483 28.6733 12.4787 28.2254 12.4787H25.457V11.5801C25.457 11.2617 25.7188 11 26.0413 11H28.9203C29.2447 11 29.5082 11.2599 29.5082 11.5801V12.6709V12.669Z" fill="#8CB6E1"/>
<path d="M28.2254 14.3877C28.5885 14.3877 28.8834 14.6768 28.8834 15.0374C28.8834 15.3979 28.5885 15.6907 28.2254 15.6907C27.8623 15.6907 27.571 15.3979 27.571 15.0374C27.571 14.6768 27.8623 14.3877 28.2254 14.3877Z" fill="#3E5167"/>
<path d="M28.2254 17.7715C28.5885 17.7715 28.8834 18.0643 28.8834 18.4248C28.8834 18.7854 28.5885 19.0745 28.2254 19.0745C27.8623 19.0745 27.571 18.7854 27.571 18.4248C27.571 18.0643 27.8623 17.7715 28.2254 17.7715Z" fill="#3E5167"/>
<path d="M26.5225 16.0786C26.8856 16.0786 27.1768 16.3714 27.1768 16.732C27.1768 17.0925 26.8856 17.3816 26.5225 17.3816C26.1594 17.3816 25.8682 17.0888 25.8682 16.732C25.8682 16.3751 26.1594 16.0786 26.5225 16.0786Z" fill="#3E5167"/>
<path d="M26.1557 20.4542C26.2 20.6225 26.2221 20.8 26.2221 20.9831C26.2221 21.8523 25.7337 22.6045 25.013 22.9907C24.6923 23.1627 24.3218 23.2615 23.9256 23.2615C22.6575 23.2615 21.6309 22.2422 21.6309 20.9831C21.6309 19.724 22.6575 18.7046 23.9256 18.7046C24.1099 18.7046 24.2923 18.7266 24.4656 18.7705C25.3005 18.9681 25.9585 19.6215 26.1539 20.4542H26.1557Z" fill="#3E5167"/>
<path d="M17.0746 18.7026C18.3427 18.7026 19.3693 19.722 19.3693 20.9811C19.3693 22.2402 18.3427 23.2596 17.0746 23.2596C16.6783 23.2596 16.3097 23.1607 15.9872 22.9887C15.2665 22.6026 14.7781 21.8504 14.7781 20.9811C14.7781 20.8018 14.8002 20.6242 14.8407 20.4559C15.0361 19.6232 15.6941 18.9662 16.529 18.7685C16.7023 18.7246 16.8848 18.7026 17.0728 18.7026H17.0746Z" fill="#3E5167"/>
<path d="M17.0561 16.7316C17.0561 17.4692 16.8681 18.1628 16.5308 18.7685C15.6959 18.9662 15.0379 19.6232 14.8425 20.4559C14.2288 20.789 13.5228 20.9811 12.7727 20.9811C10.408 20.9811 8.48926 19.0797 8.48926 16.7316C8.48926 14.8229 9.75364 13.2087 11.4936 12.6688C11.9009 12.5444 12.3285 12.4785 12.7727 12.4785C15.1374 12.4785 17.0561 14.38 17.0561 16.7316ZM14.6508 17.0483V16.4132H13.0952V14.8686H12.452V16.4132H10.8964V17.0483H12.452V18.5928H13.0952V17.0483H14.6508Z" fill="#CFD6E5"/>
<path d="M33.9775 27.3501C34.1287 28.4262 33.5114 29.46 32.4922 29.8462C32.2194 29.9487 31.9334 30.0005 31.6533 30.0005C30.9439 30.0004 30.253 29.6811 29.7979 29.1011L25.0146 22.9907C25.7353 22.6046 26.2236 21.8522 26.2236 20.9829C26.2236 20.8001 26.2014 20.6228 26.1572 20.4546C26.771 20.7932 27.4774 20.9829 28.2275 20.9829C30.5922 20.9828 32.5107 19.0818 32.5107 16.7339L33.9775 27.3501ZM8.48926 16.7319C8.48926 19.0798 10.4079 20.9818 12.7725 20.9819C13.5226 20.9819 14.229 20.7914 14.8428 20.4565C14.8023 20.6248 14.7803 20.8027 14.7803 20.9819C14.7804 21.851 15.2687 22.6027 15.9893 22.9888L11.2021 29.1001C10.747 29.6799 10.056 29.9984 9.34668 29.9985C9.07026 29.9985 8.78446 29.9467 8.51172 29.8442C7.49247 29.4581 6.87501 28.4242 7.02246 27.3481L8.48926 16.7319ZM28.2256 12.479C25.8609 12.479 23.9424 14.3803 23.9424 16.7319C23.9424 17.4695 24.1342 18.1633 24.4678 18.769C24.2946 18.7252 24.1119 18.7027 23.9277 18.7026C22.6598 18.7026 21.6331 19.7221 21.6328 20.981H19.3711C19.3708 19.7221 18.3441 18.7026 17.0762 18.7026C16.8884 18.7027 16.7063 18.7252 16.5332 18.769C16.8686 18.1633 17.0576 17.4694 17.0576 16.7319C17.0576 14.3803 15.1391 12.479 12.7744 12.479H28.2256Z" fill="url(#paint0_linear_2306_1397)"/>
<path d="M15.5412 11.5801V12.4787H12.7728C12.3286 12.4787 11.901 12.5446 11.4937 12.669V11.5801C11.4937 11.2617 11.7554 11 12.0779 11H14.9569C15.2776 11 15.5412 11.2599 15.5412 11.5801Z" fill="#8CB6E1"/>
<path d="M14.7353 16.2987C14.9421 16.2987 15.1098 16.4663 15.1098 16.6732C15.1098 16.88 14.9421 17.0476 14.7353 17.0476H14.1123C13.6093 17.0476 13.2015 17.4554 13.2015 17.9584V18.4747C13.2015 18.6926 13.0249 18.8693 12.807 18.8693C12.5891 18.8693 12.4125 18.6926 12.4125 18.4747V17.9584C12.4125 17.4554 12.0047 17.0476 11.5016 17.0476H10.8764C10.6696 17.0476 10.502 16.88 10.502 16.6732C10.502 16.4663 10.6696 16.2987 10.8764 16.2987H11.5016C12.0047 16.2987 12.4125 15.8909 12.4125 15.3879V14.8716C12.4125 14.6537 12.5891 14.4771 12.807 14.4771C13.0249 14.4771 13.2015 14.6537 13.2015 14.8716V15.3879C13.2015 15.8909 13.6093 16.2987 14.1123 16.2987H14.7353Z" fill="#3E5167"/>
</g>
<defs>
<linearGradient id="paint0_linear_2306_1397" x1="11.4951" y1="16.7322" x2="11.4951" y2="29.9987" gradientUnits="userSpaceOnUse">
<stop offset="0.25" stop-color="#8CB6E1"/>
<stop offset="1" stop-color="#5873A5"/>
</linearGradient>
<clipPath id="clip0_2306_1397">
<rect width="27" height="19" fill="white" transform="translate(7 11)"/>
</clipPath>
</defs>
</svg>
