<svg width="40" height="40" viewBox="0 0 40 40" fill="none" xmlns="http://www.w3.org/2000/svg">
<rect width="40" height="40" rx="10" fill="#EBEBEB"/>
<path fill-rule="evenodd" clip-rule="evenodd" d="M20.5863 7.66699C26.3624 7.66699 29.2504 7.66699 31.0442 9.38609C31.6618 9.97791 32.0674 10.6942 32.3333 11.6042L12.4417 30.667C11.4921 30.4122 10.7446 30.0235 10.1271 29.4317C8.33325 27.7138 8.33325 24.9449 8.33325 19.4095C8.33325 13.8741 8.33325 11.1064 10.1271 9.38609C11.9234 7.66699 14.8102 7.66699 20.5863 7.66699ZM12.6218 15.6014C12.6218 17.6974 13.9905 20.1434 16.1262 21.0182C16.6236 21.2213 17.1971 21.2213 17.6946 21.0182C19.8303 20.1434 21.1989 17.6974 21.1989 15.6014C21.1989 13.4889 19.2789 11.7769 16.9104 11.7769C14.5419 11.7769 12.6218 13.4889 12.6218 15.6014Z" fill="url(#paint0_linear_2306_1250)"/>
<path opacity="0.5" d="M32.1997 13.667C32.3333 15.1977 32.3333 17.1072 32.3333 19.5278C32.3333 24.5461 32.3333 27.3636 31.1352 29.1797L23.9092 21.9556L32.1997 13.667ZM29.8473 30.4676L22.6238 23.2436L14.3333 31.5322C15.8651 31.667 17.7745 31.667 20.1961 31.667C25.2141 31.667 28.0314 31.667 29.8473 30.4676Z" fill="url(#paint1_linear_2306_1250)"/>
<g clip-path="url(#clip0_2306_1250)">
<path d="M16.8333 10.667C14.0764 10.667 11.8333 12.8204 11.8333 15.464C11.8186 18.5953 14.9815 21.2934 16.2865 22.2755C16.6117 22.5204 17.0523 22.5204 17.3758 22.2732C18.6734 21.2819 21.8476 18.5416 21.8332 15.467C21.8332 12.8204 19.5901 10.667 16.8333 10.667ZM16.8333 17.867C15.452 17.867 14.3333 16.793 14.3333 15.467C14.3333 14.141 15.452 13.067 16.8333 13.067C18.2145 13.067 19.3332 14.141 19.3332 15.467C19.3332 16.793 18.2145 17.867 16.8333 17.867Z" fill="#F55141"/>
</g>
<defs>
<linearGradient id="paint0_linear_2306_1250" x1="20.3333" y1="7.66699" x2="20.3333" y2="30.667" gradientUnits="userSpaceOnUse">
<stop stop-color="#ADD99D"/>
<stop offset="1" stop-color="#4AB523"/>
</linearGradient>
<linearGradient id="paint1_linear_2306_1250" x1="23.3333" y1="13.667" x2="23.3333" y2="31.667" gradientUnits="userSpaceOnUse">
<stop stop-color="#6ACCFF"/>
<stop offset="1" stop-color="#0050BE"/>
</linearGradient>
<clipPath id="clip0_2306_1250">
<rect x="10.3333" y="10.667" width="14" height="14" rx="7" fill="white"/>
</clipPath>
</defs>
</svg>
