<svg width="24" height="24" viewBox="0 0 24 24" fill="none" xmlns="http://www.w3.org/2000/svg">
<circle cx="12" cy="12" r="11" fill="#00A8FF" stroke="#00A8FF" stroke-width="2"/>
<path d="M9 6H12.9919C13.879 6 14.6227 6.16575 15.2231 6.49724C15.8235 6.82873 16.2698 7.28177 16.5619 7.85635C16.854 8.42541 17 9.07735 17 9.81215C17 10.5414 16.854 11.1934 16.5619 11.768C16.2698 12.3425 15.8235 12.7983 15.2231 13.1354C14.6281 13.4724 13.8898 13.6409 13.0081 13.6409H10.1521V12.3149H12.9432C13.549 12.3149 14.0467 12.2072 14.4361 11.9917C14.8256 11.7762 15.1068 11.4834 15.2799 11.1133C15.4584 10.7431 15.5504 10.3094 15.5558 9.81215C15.5504 9.31492 15.4584 8.88122 15.2799 8.51105C15.1068 8.14088 14.8229 7.85083 14.428 7.64088C14.0385 7.43094 13.5382 7.32597 12.927 7.32597H10.4604V18H9V6Z" fill="white"/>
</svg>
