<svg width="40" height="40" viewBox="0 0 40 40" fill="none" xmlns="http://www.w3.org/2000/svg">
<rect width="40" height="40" rx="10" fill="#EBEBEB"/>
<g clip-path="url(#clip0_2306_1396)">
<path d="M27.0755 13.9301C26.2929 12.77 25.117 11.9298 23.8254 11.6889C22.4097 11.4244 20.8236 12.3115 19.9989 12.3137C19.1743 12.3115 17.5882 11.4244 16.1725 11.6889C14.883 11.9298 13.705 12.7721 12.9224 13.9301C12.1399 15.0901 11.7486 16.5487 11.7633 17.9923C11.7802 19.6109 12.2829 21.1761 12.8951 22.6453C13.5072 24.1146 14.2351 25.5305 14.7462 27.0467L19.9968 22.6538L25.2474 27.0467C25.7586 25.5305 26.4865 24.1146 27.0986 22.6453C27.7108 21.1761 28.2156 19.6109 28.2303 17.9923C28.2451 16.5466 27.8538 15.088 27.0713 13.9301H27.0755Z" fill="url(#paint0_linear_2306_1396)"/>
<path d="M25.3609 24.6714C24.9718 24.0893 24.4879 23.586 23.9368 23.2C22.8324 22.4281 21.3683 22.3321 20.0809 22.5859C18.7935 22.3321 17.3294 22.426 16.225 23.2C15.6886 23.5754 15.2174 24.0615 14.8345 24.6202C14.4285 25.2152 13.7238 27.4351 13.9258 28.1345C14.1277 28.8339 14.6115 29.5504 15.2468 29.7637C16.0125 30.0196 16.8266 29.8468 17.544 29.4545C18.2592 29.0642 19.2794 28.4458 20.0767 28.5141C20.0767 28.5141 20.0767 28.5141 20.0788 28.5141C20.0788 28.5141 20.0788 28.5141 20.0809 28.5141C20.8782 28.4437 21.8984 29.0621 22.6136 29.4545C23.331 29.8468 24.1451 30.0174 24.9108 29.7637C25.5482 29.5504 26.0299 28.8361 26.2318 28.1345C26.4338 27.4351 25.7459 25.2536 25.3588 24.6736L25.3609 24.6714Z" fill="#FFFBF5"/>
<path d="M17.439 11.6975L14.8873 14.3034C14.4392 14.7618 14.1279 15.3376 13.9869 15.9688C13.4631 18.3102 11.9528 24.1915 9.97537 24.4879C8.62818 24.6901 8.17836 21.6932 8.04792 18.9245C7.91731 16.1522 9.52819 13.6354 11.9987 12.3706C13.3148 11.6968 14.5437 11.1021 14.9209 11.0258C15.8381 10.8403 17.439 11.6975 17.439 11.6975Z" fill="#C66833"/>
<path d="M22.5149 11.698L25.0666 14.3038C25.5146 14.7623 25.826 15.3381 25.9669 15.9693C26.4907 18.3107 28.0011 24.1919 29.9785 24.4884C31.3255 24.6906 31.7754 21.6943 31.9059 18.9258C32.0366 16.153 30.4252 13.6359 27.9543 12.3711C26.638 11.6973 25.4093 11.1026 25.0329 11.0263C24.1178 10.8408 22.5149 11.698 22.5149 11.698Z" fill="#C66833"/>
<path d="M16.7257 19.9838C16.7257 20.6513 16.387 21.1908 15.9705 21.1908C15.554 21.1908 15.2153 20.6513 15.2153 19.9838C15.2153 19.3164 15.554 18.7769 15.9705 18.7769C16.387 18.7769 16.7257 19.3164 16.7257 19.9838Z" fill="black"/>
<path d="M24.7846 19.9838C24.7846 20.6513 24.4459 21.1908 24.0294 21.1908C23.6128 21.1908 23.2742 20.6513 23.2742 19.9838C23.2742 19.3164 23.6128 18.7769 24.0294 18.7769C24.4459 18.7769 24.7846 19.3164 24.7846 19.9838Z" fill="black"/>
<path d="M19.9907 21.2356C21.0376 21.2356 21.8839 21.8573 21.8839 22.6217C21.8839 23.3862 21.0376 24.0078 19.9907 24.0078C18.9437 24.0078 18.0974 23.3862 18.0974 22.6217C18.0974 21.8573 18.9437 21.2356 19.9907 21.2356Z" fill="black"/>
</g>
<defs>
<linearGradient id="paint0_linear_2306_1396" x1="19.9968" y1="27.0467" x2="19.9968" y2="11.6396" gradientUnits="userSpaceOnUse">
<stop stop-color="#E0A716"/>
<stop offset="1" stop-color="#FFC062"/>
</linearGradient>
<clipPath id="clip0_2306_1396">
<rect width="24" height="19" fill="white" transform="translate(8 11)"/>
</clipPath>
</defs>
</svg>
