<svg width="40" height="40" viewBox="0 0 40 40" fill="none" xmlns="http://www.w3.org/2000/svg">
<rect width="40" height="40" rx="10" fill="#EBEBEB"/>
<g clip-path="url(#clip0_2306_1398)">
<path d="M25.6518 19.5988L21.4265 15.3735L12.813 23.987L17.0383 28.2123L25.6518 19.5988Z" fill="url(#paint0_linear_2306_1398)"/>
<path d="M23.8602 17.0751C22.7019 15.9716 22.6849 14.1485 23.8225 13.0237L25.9002 10.9692C27.0378 9.84438 28.9163 9.82689 30.0746 10.9304C31.2329 12.0338 31.2835 13.9717 30.1459 15.0965L28.0682 17.151C26.9306 18.2758 25.0185 18.1786 23.8602 17.0751Z" fill="#FB6459"/>
<path d="M29.681 15.5799L25.4834 11.3574L21.4274 15.3895L25.625 19.612L29.681 15.5799Z" fill="#DEDFE3"/>
<path d="M12.7999 23.9748L10.0977 30.3158C9.94003 30.6847 10.309 31.0568 10.681 30.8992L17.0252 28.1969L12.7999 23.9717V23.9748Z" fill="#FFB066"/>
<path d="M10.6464 29.0322L11.9675 30.3534L10.5266 30.9683C10.2144 31.1007 9.90223 30.7885 10.0347 30.4764L10.6495 29.0354L10.6464 29.0322Z" fill="#4F5054"/>
<path d="M29.2822 15.9755L25.0874 11.7559L24.4304 12.409L28.6251 16.6287L29.2822 15.9755Z" fill="#AFADAE"/>
<path d="M26.5812 18.6647L22.3823 14.4409L21.7253 15.0941L25.9241 19.3179L26.5812 18.6647Z" fill="#AFADAE"/>
</g>
<defs>
<linearGradient id="paint0_linear_2306_1398" x1="14.9257" y1="26.0997" x2="23.5392" y2="17.4862" gradientUnits="userSpaceOnUse">
<stop stop-color="#FD8110"/>
<stop offset="1" stop-color="#FFA825"/>
</linearGradient>
<clipPath id="clip0_2306_1398">
<rect width="21" height="21" fill="white" transform="translate(10 10)"/>
</clipPath>
</defs>
</svg>
