<svg width="24" height="24" viewBox="0 0 24 24" fill="none" xmlns="http://www.w3.org/2000/svg">
<path d="M11.9995 13.9738C13.0048 13.9738 13.9691 13.5744 14.68 12.8635C15.3909 12.1525 15.7903 11.1883 15.7903 10.1829C15.7903 9.17746 15.3909 8.21322 14.68 7.50228C13.9691 6.79135 13.0048 6.39195 11.9995 6.39195C10.9941 6.39195 10.0299 6.79135 9.31895 7.50228C8.60804 8.21322 8.20865 9.17746 8.20865 10.1829C8.20865 11.1883 8.60804 12.1525 9.31895 12.8635C10.0299 13.5744 10.9941 13.9738 11.9995 13.9738ZM11.9995 13.9738C13.58 13.9739 15.1062 14.5511 16.2912 15.5971C17.4762 16.643 18.2386 18.0856 18.4351 19.654C16.6354 21.1734 14.3548 22.0047 11.9995 22C9.64413 22.0047 7.36356 21.1734 5.56378 19.654M11.9995 13.9738C10.4189 13.9739 8.89275 14.5511 7.70772 15.5971C6.52268 16.643 5.7603 18.0856 5.56378 19.654M5.56378 19.654C3.99386 18.3337 2.86792 16.5625 2.33863 14.5807C1.80934 12.5988 1.90231 10.5021 2.60494 8.57488C3.30756 6.64764 4.58585 4.98311 6.26647 3.80697C7.94709 2.63084 9.94873 2 12 2C14.0513 2 16.0529 2.63084 17.7335 3.80697C19.4142 4.98311 20.6924 6.64764 21.3951 8.57488C22.0977 10.5021 22.1907 12.5988 21.6614 14.5807C21.1321 16.5625 20.0061 18.3337 18.4362 19.654" stroke="#00A8FF" stroke-width="1.25" stroke-linecap="round" stroke-linejoin="round"/>
</svg>
