<svg width="40" height="40" viewBox="0 0 40 40" fill="none" xmlns="http://www.w3.org/2000/svg">
<rect width="40" height="40" rx="10" fill="#EBEBEB"/>
<g clip-path="url(#clip0_2306_1400)">
<path d="M23.975 28.6407C23.975 29.3324 23.5085 29.8933 22.9333 29.8933H18.0664C17.4909 29.8933 17.0247 29.3324 17.0247 28.6407V26.7194C17.0247 26.0274 17.4912 25.4668 18.0664 25.4668H22.9333C23.5085 25.4668 23.975 26.0277 23.975 26.7194V28.6407Z" fill="#CFD6E4"/>
<path d="M33 25.2481C33 25.9398 32.4342 26.5007 31.7364 26.5007H9.26362C8.56583 26.5007 8 25.9398 8 25.2481V10.2526C8 9.56091 8.56583 9 9.26362 9H31.7361C32.4339 9 32.9997 9.56091 32.9997 10.2526V25.2481H33Z" fill="#CFD6E5"/>
<path d="M24.247 28.9738C24.0648 28.8518 23.8505 28.7866 23.6313 28.7866H17.369C17.1497 28.7866 16.9354 28.8518 16.7532 28.9738C15.8443 29.5824 16.2752 31 17.369 31H23.6313C24.7251 31 25.1559 29.5824 24.247 28.9738Z" fill="#A3B8CD"/>
<path d="M31.3165 10.6587C31.1238 10.524 30.882 10.4429 30.6187 10.4429H10.3812C9.75254 10.4429 9.24316 10.9005 9.24316 11.465V23.6994C9.24316 24.0406 9.43006 24.342 9.7163 24.5276C9.90351 24.6491 10.1327 24.7212 10.3812 24.7212H30.6187C31.2473 24.7212 31.7567 24.2636 31.7567 23.6994V11.465C31.7567 11.137 31.584 10.8457 31.3165 10.6587Z" fill="url(#paint0_linear_2306_1400)"/>
</g>
<defs>
<linearGradient id="paint0_linear_2306_1400" x1="20.4999" y1="10.4429" x2="20.4999" y2="24.7212" gradientUnits="userSpaceOnUse">
<stop stop-color="#9F72BE"/>
<stop offset="1" stop-color="#6F75D2"/>
</linearGradient>
<clipPath id="clip0_2306_1400">
<rect width="25" height="22" fill="white" transform="translate(8 9)"/>
</clipPath>
</defs>
</svg>
