<svg width="164" height="32" viewBox="0 0 164 32" fill="none" xmlns="http://www.w3.org/2000/svg">
<g clip-path="url(#clip0_2490_1103)">
<path d="M106.941 11.643V25.6847H106.976C107.58 25.6848 108.164 25.4636 108.619 25.0624C109.074 24.6612 109.368 24.1074 109.447 23.504C109.453 23.4603 109.457 23.4165 109.461 23.3728C109.461 23.3587 109.461 23.3447 109.461 23.3299C109.461 23.315 109.461 23.2985 109.461 23.282C109.461 23.2465 109.461 23.211 109.461 23.1755V8.17383C108.729 8.40761 108.091 8.8699 107.638 9.49367C107.184 10.1174 106.941 10.8703 106.941 11.643Z" fill="#00152A"/>
<path d="M49.6715 6.09397C50.6112 6.08013 51.543 6.26906 52.4041 6.64806C53.2652 7.02706 54.0357 7.58734 54.6636 8.29118C55.7467 9.45498 56.3837 10.9682 56.4611 12.561C56.5761 14.2581 56.0339 15.9342 54.9482 17.2377C54.2869 18.0412 53.4548 18.6849 52.5132 19.1212C51.5716 19.5575 50.5447 19.7753 49.5083 19.7585C48.0154 19.7261 46.5785 19.1805 45.4362 18.2125C45.4347 18.2112 45.4329 18.2103 45.4309 18.21C45.429 18.2098 45.427 18.2101 45.4252 18.211C45.4234 18.2119 45.4219 18.2133 45.421 18.215C45.42 18.2168 45.4196 18.2188 45.4198 18.2208V23.7262C45.4156 24.0276 45.3504 24.325 45.228 24.6001C45.1057 24.8752 44.9288 25.1223 44.7082 25.3261C44.4876 25.53 44.228 25.6864 43.9453 25.7857C43.6625 25.885 43.3626 25.9251 43.0639 25.9036H42.8925V12.9927C42.8737 11.3501 43.447 9.75625 44.5063 8.5066C45.134 7.74209 45.9236 7.12862 46.8173 6.71116C47.711 6.29369 48.6863 6.08282 49.6715 6.09397ZM49.1065 17.1857C49.7581 17.2768 50.4218 17.2138 51.045 17.0016C51.6682 16.7894 52.2336 16.4339 52.6965 15.9633C53.0981 15.5711 53.4157 15.1003 53.6298 14.5799C53.8439 14.0595 53.9499 13.5005 53.9412 12.9374C53.9439 12.3721 53.8353 11.8119 53.6217 11.2891C53.408 10.7663 53.0936 10.2913 52.6965 9.89163C52.2994 9.49191 51.8275 9.17539 51.3082 8.96033C50.7888 8.74527 50.2322 8.63593 49.6707 8.63867C49.1112 8.62997 48.5558 8.73666 48.0388 8.95215C47.5218 9.16763 47.0542 9.48735 46.6645 9.89163C46.2365 10.3253 45.905 10.8456 45.6919 11.418C45.4789 11.9905 45.3892 12.602 45.4288 13.212C45.4685 13.822 45.6365 14.4166 45.9218 14.9562C46.2071 15.4959 46.6031 15.9683 47.0836 16.3421C47.6633 16.8135 48.3656 17.1069 49.1065 17.1874V17.1857Z" fill="#00152A"/>
<path d="M71.5015 25.6669H68.9734V24.125C67.7814 25.0839 66.301 25.6065 64.7751 25.607C63.2492 25.6076 61.7685 25.0861 60.5757 24.1281C59.383 23.1702 58.5492 21.8326 58.211 20.3348C57.8729 18.8371 58.0505 17.2681 58.7147 15.8853C59.379 14.5025 60.4904 13.3881 61.8666 12.7247C63.2429 12.0614 64.8023 11.8887 66.2889 12.2348C67.7756 12.5809 69.1012 13.4253 70.0483 14.6296C70.9955 15.8338 71.5079 17.3263 71.5015 18.8622V25.6669ZM64.7029 23.1403C65.2652 23.1483 65.8233 23.0413 66.3433 22.826C66.8634 22.6106 67.3347 22.2913 67.7287 21.8873C68.1303 21.4952 68.4479 21.0244 68.662 20.504C68.8761 19.9836 68.9821 19.4246 68.9734 18.8614C68.9762 18.2961 68.8677 17.7358 68.6541 17.213C68.4405 16.6902 68.126 16.2152 67.7289 15.8154C67.3318 15.4157 66.8599 15.0992 66.3405 14.8841C65.8211 14.6691 65.2645 14.5599 64.7029 14.5627C64.1434 14.554 63.588 14.6607 63.071 14.8762C62.554 15.0917 62.0864 15.4114 61.6967 15.8157C61.2955 16.2123 60.9783 16.6867 60.7644 17.2102C60.5504 17.7337 60.4442 18.2954 60.452 18.8614C60.4519 19.4234 60.5618 19.9798 60.7753 20.499C60.9889 21.0182 61.302 21.4899 61.6968 21.8873C62.0916 22.2846 62.5602 22.5998 63.076 22.8148C63.5918 23.0298 64.1446 23.1404 64.7029 23.1403Z" fill="#00152A"/>
<path d="M74.2632 25.6864V18.8628C74.2632 17.0504 74.9784 15.3123 76.2516 14.0308C77.5247 12.7493 79.2515 12.0293 81.052 12.0293C82.8525 12.0293 84.5792 12.7493 85.8523 14.0308C87.1255 15.3123 87.8407 17.0504 87.8407 18.8628V25.6864H85.3127V18.8628C85.3352 18.2854 85.2416 17.7094 85.0377 17.1693C84.8337 16.6292 84.5235 16.1361 84.1256 15.7196C83.7277 15.3031 83.2504 14.9717 82.7223 14.7454C82.1941 14.5191 81.626 14.4024 81.052 14.4024C80.4779 14.4024 79.9098 14.5191 79.3816 14.7454C78.8535 14.9717 78.3762 15.3031 77.9783 15.7196C77.5804 16.1361 77.2702 16.6292 77.0662 17.1693C76.8623 17.7094 76.7687 18.2854 76.7912 18.8628V25.6864H74.2632Z" fill="#00152A"/>
<path d="M93.3398 20.1347C93.6103 20.9945 94.1389 21.7488 94.8527 22.2939C95.5853 22.8519 96.481 23.1495 97.3996 23.1399C98.1815 23.1334 98.9527 22.9557 99.6596 22.6191C100.356 22.3356 100.96 21.8615 101.402 21.2506L103.49 22.6769C102.828 23.6291 101.92 24.3821 100.866 24.8551C99.7879 25.3926 98.6024 25.6749 97.3996 25.6805C96.0575 25.6815 94.7452 25.2817 93.6289 24.5318C92.5125 23.7818 91.6422 22.7154 91.1282 21.4675C90.6141 20.2195 90.4794 18.8461 90.741 17.521C91.0026 16.196 91.6487 14.9788 92.5978 14.0235C93.5468 13.0682 94.7561 12.4177 96.0725 12.1544C97.3889 11.8911 98.7532 12.0267 99.993 12.5442C101.233 13.0616 102.292 13.9376 103.037 15.0613C103.782 16.1851 104.18 17.506 104.179 18.8569C104.179 19.2773 104.141 19.6967 104.064 20.1099L93.3398 20.1347ZM97.3996 14.564C96.4809 14.5553 95.5852 14.8534 94.8527 15.4117C94.1358 15.9619 93.6069 16.7232 93.3398 17.5899H101.44C101.173 16.7233 100.644 15.9619 99.9269 15.4117C99.2006 14.8558 98.3119 14.5577 97.3996 14.564Z" fill="#00152A"/>
<path d="M130.712 23.6815C129.606 22.5644 128.919 21.0957 128.768 19.5257C128.617 17.9558 129.011 16.3817 129.884 15.0717C130.757 13.7616 132.054 12.7966 133.554 12.3412C135.054 11.8857 136.665 11.968 138.111 12.5739C139.558 13.1798 140.751 14.2719 141.488 15.6641C142.224 17.0563 142.459 18.6625 142.151 20.209C141.842 21.7555 141.011 23.1467 139.798 24.1454C138.586 25.1442 137.066 25.6888 135.499 25.6864C134.608 25.6992 133.723 25.5279 132.9 25.183C132.076 24.8382 131.332 24.3272 130.712 23.6815ZM132.493 15.8171C132.092 16.2137 131.775 16.6882 131.561 17.2116C131.347 17.7351 131.241 18.2968 131.248 18.8628C131.253 19.8515 131.598 20.8079 132.225 21.5694C132.851 22.3309 133.72 22.8506 134.684 23.0399C135.648 23.2292 136.647 23.0765 137.512 22.6078C138.377 22.1391 139.054 21.3834 139.427 20.4691C139.801 19.5548 139.849 18.5384 139.562 17.5928C139.275 16.6473 138.672 15.8309 137.854 15.2826C137.037 14.7343 136.056 14.4879 135.079 14.5854C134.101 14.6828 133.188 15.1181 132.493 15.8171Z" fill="#00A5FF"/>
<path d="M163.998 12.0197V20.2515C163.998 21.3672 163.657 22.4562 163.022 23.3702C162.386 24.2842 161.486 24.979 160.444 25.3601C159.402 25.7413 158.269 25.7903 157.199 25.5005C156.128 25.2107 155.172 24.5962 154.461 23.7404C153.747 24.5941 152.79 25.2067 151.72 25.4953C150.649 25.7839 149.516 25.7345 148.474 25.354C147.432 24.9734 146.531 24.28 145.894 23.3674C145.256 22.4549 144.912 21.3672 144.908 20.2515V12.0206H147.434V20.2515C147.436 21.017 147.738 21.7507 148.276 22.2921C148.814 22.8334 149.543 23.1384 150.304 23.1404C150.68 23.1471 151.053 23.0775 151.402 22.9357C151.75 22.7939 152.067 22.5827 152.333 22.315C152.605 22.0496 152.821 21.7322 152.969 21.3813C153.117 21.0304 153.194 20.6533 153.195 20.2721V12.0181H155.723V20.2721C155.718 20.6528 155.79 21.0306 155.936 21.3819C156.082 21.7333 156.297 22.0509 156.57 22.315C156.836 22.5828 157.153 22.7939 157.501 22.9357C157.85 23.0775 158.223 23.1471 158.6 23.1404C159.36 23.1386 160.089 22.8337 160.627 22.2923C161.165 21.7509 161.468 21.0171 161.47 20.2515V12.0206L163.998 12.0197Z" fill="#00A5FF"/>
<path d="M126.11 25.6867L115.063 14.633V23.1437C115.063 23.8192 114.797 24.4671 114.322 24.9448C113.847 25.4225 113.204 25.6909 112.533 25.6909V8.24023L123.58 19.294V10.7874C123.58 10.1119 123.846 9.46398 124.321 8.98629C124.795 8.5086 125.439 8.24023 126.11 8.24023V25.6867Z" fill="#00A5FF"/>
<path d="M0 23.5904C0.794324 22.7904 1.73747 22.1557 2.77555 21.7227C3.81362 21.2897 4.92629 21.0669 6.04997 21.0669C7.17364 21.0669 8.2863 21.2897 9.32437 21.7227C10.3624 22.1557 11.3056 22.7904 12.0999 23.5904L14.4049 25.9114L8.35498 32.0037L0 23.5904Z" fill="url(#paint0_linear_2490_1103)"/>
<path d="M20.582 -0.00195301C18.9755 -0.00216996 17.3847 0.316213 15.9005 0.935012C14.4163 1.55381 13.0677 2.46089 11.9319 3.60444C10.796 4.748 9.89518 6.10561 9.28073 7.59971C8.66628 9.09382 8.35029 10.6951 8.35083 12.3122V24.6156H20.5688C22.1746 24.6162 23.7648 24.2984 25.2485 23.6803C26.7323 23.0623 28.0806 22.1561 29.2164 21.0135C30.3523 19.871 31.2534 18.5144 31.8684 17.0213C32.4834 15.5282 32.8002 13.9278 32.8008 12.3114C32.8013 10.695 32.4855 9.09438 31.8715 7.60085C31.2575 6.10732 30.3573 4.75016 29.2222 3.60684C28.0871 2.46351 26.7395 1.55641 25.2561 0.937355C23.7728 0.318299 22.1828 -0.000604991 20.577 -0.00114696L20.582 -0.00195301ZM20.7304 16.2279H16.9108V12.3815C16.9111 11.6212 17.1354 10.878 17.5553 10.246C17.9752 9.61393 18.5719 9.12141 19.2698 8.83066C19.9678 8.53992 20.7357 8.46401 21.4765 8.61255C22.2173 8.76108 22.8978 9.1274 23.4318 9.66516C23.9658 10.2029 24.3294 10.888 24.4767 11.6337C24.6239 12.3795 24.5482 13.1525 24.259 13.8549C23.9699 14.5573 23.4803 15.1577 22.8522 15.5801C22.2241 16.0025 21.4857 16.2279 20.7304 16.2279Z" fill="url(#paint1_linear_2490_1103)"/>
<path opacity="0.5" d="M8.35497 21.3804V32L6.50342 30.1354L8.35497 21.3804Z" fill="#1227E5"/>
<path d="M8.35083 12.3106V31.9997H8.46727C10.514 31.999 12.4907 31.2496 14.0294 29.891C15.568 28.5325 16.5638 26.6574 16.8313 24.6149C16.8504 24.4674 16.8657 24.3188 16.8772 24.1691C16.8772 24.1213 16.8854 24.0726 16.8878 24.0247C16.8903 23.9768 16.8944 23.9174 16.896 23.8646C16.901 23.7441 16.9051 23.6235 16.9051 23.503V0.563477C14.4236 1.35158 12.2564 2.91541 10.7181 5.02787C9.17979 7.14033 8.35056 9.69141 8.35083 12.3106Z" fill="#00152A"/>
</g>
<defs>
<linearGradient id="paint0_linear_2490_1103" x1="4.68161" y1="22.2153" x2="9.6368" y2="30.8613" gradientUnits="userSpaceOnUse">
<stop stop-color="#00B2FF"/>
<stop offset="1" stop-color="#005BEF"/>
</linearGradient>
<linearGradient id="paint1_linear_2490_1103" x1="28.302" y1="4.8231" x2="9.45032" y2="22.8375" gradientUnits="userSpaceOnUse">
<stop stop-color="#00B2FF"/>
<stop offset="1" stop-color="#005BEF"/>
</linearGradient>
<clipPath id="clip0_2490_1103">
<rect width="164" height="32" fill="white"/>
</clipPath>
</defs>
</svg>
